<svg width="13" height="16" viewBox="0 0 13 16" fill="none" xmlns="http://www.w3.org/2000/svg">
<path d="M6.625 1.25L11.875 6.75C12.1562 7.0625 12.1562 7.53125 11.8438 7.8125C11.5312 8.09375 11.0625 8.09375 10.7812 7.78125L6.84375 3.625V14.25C6.84375 14.6875 6.5 15 6.09375 15C5.65625 15 5.34375 14.6875 5.34375 14.25V3.625L1.375 7.78125C1.09375 8.09375 0.625 8.09375 0.3125 7.8125C0 7.53125 0 7.03125 0.28125 6.75L5.53125 1.25C5.6875 1.09375 5.875 1 6.09375 1C6.28125 1 6.46875 1.09375 6.625 1.25Z" fill="#8C95A8"/>
</svg>
