<svg width="119" height="56" viewBox="0 0 119 56" fill="none" xmlns="http://www.w3.org/2000/svg">
<path d="M52.6984 31.6016H65.3584V23.2016H52.6984V31.6016ZM51.1984 35.2016C50.7034 35.2016 50.2797 35.0252 49.9272 34.6726C49.5747 34.3199 49.3984 33.8959 49.3984 33.4006V21.3946C49.3984 20.8992 49.5747 20.4766 49.9272 20.1266C50.2797 19.7766 50.7034 19.6016 51.1984 19.6016H66.7984C67.2934 19.6016 67.7172 19.7779 68.0697 20.1306C68.4222 20.4832 68.5984 20.9072 68.5984 21.4026V33.4086C68.5984 33.9039 68.4222 34.3266 68.0697 34.6766C67.7172 35.0266 67.2934 35.2016 66.7984 35.2016H51.1984ZM66.7984 21.4016H51.1984V33.4016H66.7984V21.4016Z" fill="#464F5E"/>
</svg>
