<svg width="32" height="32" viewBox="0 0 32 32" fill="none" xmlns="http://www.w3.org/2000/svg">
<path d="M21.3789 12.0664L17.1602 16.2852L21.3438 20.4688C21.6953 20.7852 21.6953 21.3125 21.3438 21.6289C21.0273 21.9805 20.5 21.9805 20.1836 21.6289L15.9648 17.4453L11.7812 21.6289C11.4648 21.9805 10.9375 21.9805 10.6211 21.6289C10.2695 21.3125 10.2695 20.7852 10.6211 20.4336L14.8047 16.25L10.6211 12.0664C10.2695 11.75 10.2695 11.2227 10.6211 10.8711C10.9375 10.5547 11.4648 10.5547 11.8164 10.8711L16 15.0898L20.1836 10.9062C20.5 10.5547 21.0273 10.5547 21.3789 10.9062C21.6953 11.2227 21.6953 11.75 21.3789 12.0664Z" fill="#464F5E"/>
</svg>
