<svg width="40" height="40" viewBox="0 0 40 40" fill="none" xmlns="http://www.w3.org/2000/svg">
<g clip-path="url(#clip0_45_1458)">
<g clip-path="url(#clip1_45_1458)">
<path d="M21.0559 27.1528C18.6083 28.5367 15.5733 28.5367 13.1398 27.1528C12.4545 26.7653 11.5873 27.0006 11.1957 27.6787C10.8041 28.3568 11.0419 29.2148 11.7272 29.6023C13.3775 30.5433 15.2377 31 17.0978 31C18.9579 31 20.8181 30.5295 22.4684 29.6023C23.1538 29.2148 23.3915 28.3568 22.9999 27.6787C22.6083 27.0006 21.7412 26.7653 21.0559 27.1528Z" fill="black"/>
<path d="M22.0906 8C18.5802 8 15.713 10.8369 15.713 14.3105C15.713 14.3797 15.713 14.4489 15.713 14.5181C15.713 14.5596 15.713 14.5872 15.713 14.6288V23.9561C15.713 24.731 16.3564 25.3676 17.1396 25.3676C17.9228 25.3676 18.5662 24.731 18.5662 23.9561V19.5692C19.5732 20.2335 20.7899 20.6209 22.0906 20.6209C25.6151 20.6209 28.4683 17.784 28.4683 14.3105C28.4683 10.8369 25.6151 8 22.0906 8ZM22.0906 17.8117C20.1466 17.8117 18.5662 16.2479 18.5662 14.3243C18.5662 12.4007 20.1466 10.8369 22.0906 10.8369C24.0347 10.8369 25.6151 12.4007 25.6151 14.3243C25.6291 16.2341 24.0347 17.8117 22.0906 17.8117Z" fill="black"/>
<path d="M31.5593 24.4819V17.0644C31.5593 16.6907 31.867 16.3863 32.2446 16.3863C32.6083 16.3863 32.902 16.6354 32.9579 16.9122C33.4335 16.6077 34.0628 16.3863 34.7202 16.3863C36.4405 16.3863 37.853 17.8394 37.853 19.5969C37.853 21.3544 36.4405 22.7659 34.7202 22.7659C34.0768 22.7659 33.4474 22.5722 32.9859 22.2401V24.4958C32.9859 24.8556 32.6642 25.1877 32.2446 25.1877C31.867 25.1739 31.5593 24.8418 31.5593 24.4819ZM32.9859 19.583C32.9859 20.0812 33.1537 20.5656 33.4894 20.8562C33.8111 21.216 34.2447 21.3959 34.7202 21.3959C35.1537 21.3959 35.6013 21.216 35.937 20.8562C36.2307 20.5656 36.4405 20.0812 36.4405 19.583C36.4405 19.0848 36.2307 18.6282 35.937 18.296C35.6013 17.9501 35.1677 17.7702 34.7202 17.7702C34.2447 17.7702 33.8111 17.9501 33.4894 18.296C33.1537 18.6282 32.9859 19.0848 32.9859 19.583Z" fill="black"/>
<path d="M39.8808 22.074C39.8808 22.4753 39.5592 22.7798 39.1536 22.7798C38.8319 22.7798 38.5662 22.5445 38.4683 22.2539C38.4543 22.1986 38.4403 22.1432 38.4403 22.074V14.5319C38.4403 14.1306 38.762 13.8261 39.1536 13.8261C39.5592 13.8261 39.8808 14.1306 39.8808 14.5319V16.7599C40.3004 16.5385 40.762 16.3863 41.2655 16.3863C42.8319 16.3863 44.0767 17.6456 44.0767 19.1817V22.074C44.0767 22.4753 43.769 22.7798 43.3634 22.7798C42.9578 22.7798 42.6501 22.4753 42.6501 22.074V19.1817C42.6501 18.4344 42.0347 17.8117 41.2515 17.7978C40.4962 17.8117 39.8808 18.4206 39.8669 19.1817V22.074H39.8808Z" fill="black"/>
<path d="M45.0137 19.583C45.0277 17.8394 46.3983 16.3863 48.1606 16.3863C49.8389 16.3863 51.1676 17.6318 51.2795 19.3478V19.417C51.2795 19.4447 51.2795 19.5 51.2655 19.5277C51.2235 19.8321 50.9578 20.0397 50.5942 20.0397H46.4823C46.5522 20.3303 46.6921 20.6625 46.9158 20.8839C47.1816 21.1883 47.6991 21.4236 48.1606 21.4651C48.6221 21.5066 49.1816 21.3821 49.5032 21.1468C49.769 20.87 50.3004 20.8977 50.4683 21.1053C50.6361 21.2852 50.762 21.6727 50.4683 21.9356C49.8389 22.5169 49.0697 22.7798 48.1606 22.7798C46.3844 22.766 45.0277 21.3129 45.0137 19.583ZM46.4123 18.9465H50.0627C49.9368 18.4344 49.2795 17.6871 48.1466 17.5903C47.0697 17.6456 46.5242 18.4206 46.4123 18.9465Z" fill="black"/>
<path d="M57.5455 19.0433V22.1017C57.5455 22.4753 57.2518 22.7798 56.8742 22.7798C56.5105 22.7798 56.1889 22.4753 56.1889 22.1017V19.0433C56.1889 18.3237 55.5875 17.7563 54.8462 17.7563C54.1189 17.7563 53.5595 18.3376 53.5595 19.0433V22.1017C53.5595 22.1432 53.5595 22.1847 53.5315 22.2262C53.4616 22.5307 53.1819 22.7798 52.8462 22.7798C52.4546 22.7798 52.1609 22.4753 52.1609 22.1017V17.0644C52.1609 16.6907 52.4546 16.3863 52.8462 16.3863C53.1119 16.3863 53.3637 16.5385 53.4756 16.7876C53.8672 16.5385 54.3427 16.3863 54.8462 16.3863C56.3567 16.3863 57.5455 17.5903 57.5455 19.0433Z" fill="black"/>
<path d="M59.3497 21.8387C58.7903 21.2714 58.4546 20.4825 58.4546 19.583C58.4546 18.7112 58.7903 17.9639 59.3497 17.3412C59.9371 16.7461 60.6784 16.3724 61.5735 16.3724C62.4266 16.3724 63.1959 16.7461 63.7273 17.3412C64.3147 17.9501 64.6364 18.7112 64.6364 19.583C64.6364 20.4825 64.3147 21.2714 63.7273 21.8387C63.1959 22.4338 62.4266 22.8075 61.5735 22.8075C60.6784 22.8075 59.9231 22.4338 59.3497 21.8387ZM59.8672 19.583C59.8672 20.1366 60.035 20.5794 60.3287 20.9392C60.6504 21.2437 61.084 21.4097 61.5735 21.4097C62.021 21.4097 62.4406 21.2437 62.7623 20.9392C63.084 20.5794 63.2658 20.1366 63.2658 19.583C63.2658 19.0572 63.084 18.6005 62.7623 18.2545C62.4406 17.9777 62.021 17.7702 61.5735 17.7702C61.084 17.7702 60.6504 17.9777 60.3287 18.2545C60.035 18.6005 59.8672 19.071 59.8672 19.583Z" fill="black"/>
<path d="M70.9718 19.0295V22.1017C70.9718 22.4753 70.6641 22.7798 70.2865 22.7798C69.9228 22.7798 69.5872 22.4753 69.5872 22.1017V19.0295C69.5732 18.3237 68.9858 17.7563 68.2585 17.7563C67.5452 17.7563 66.9578 18.3375 66.9578 19.071V22.1017C66.9578 22.1294 66.9438 22.1709 66.9438 22.1847V22.2262C66.9298 22.2539 66.9298 22.2816 66.9018 22.3093V22.3785C66.79 22.6137 66.5242 22.7936 66.2585 22.7936C66.2025 22.7936 66.1746 22.7798 66.1326 22.7798C65.8249 22.6968 65.5732 22.4477 65.5732 22.1155V17.0782C65.5732 16.6769 65.8809 16.3863 66.2585 16.3863C66.5242 16.3863 66.776 16.5247 66.8739 16.7738C67.2935 16.5247 67.769 16.3863 68.2585 16.3863C69.0697 16.3863 69.797 16.7184 70.2865 17.272C70.762 16.7184 71.5033 16.3863 72.3144 16.3863C73.797 16.3863 74.9998 17.5903 74.9998 19.071V22.1017C74.9998 22.4753 74.6921 22.7798 74.3145 22.7798C73.9368 22.7798 73.6152 22.4753 73.6152 22.1017V19.071C73.6152 18.3375 73.0277 17.7563 72.3144 17.7563C71.5872 17.7563 70.9998 18.3237 70.9718 19.0295Z" fill="black"/>
</g>
</g>
<defs>
<clipPath id="clip0_45_1458">
<rect width="22" height="28" fill="white" transform="translate(9 6)"/>
</clipPath>
<clipPath id="clip1_45_1458">
<rect width="64" height="23" fill="white" transform="translate(11 8)"/>
</clipPath>
</defs>
</svg>
