<svg width="17" height="19" viewBox="0 0 17 19" fill="none" xmlns="http://www.w3.org/2000/svg">
<path d="M13.4648 2.81641C12.5508 1.90234 11.0391 1.90234 10.125 2.81641L3.41016 9.56641C1.86328 11.1133 1.86328 13.6094 3.41016 15.1211C4.92188 16.668 7.41797 16.668 8.96484 15.1211L14.3086 9.77734C14.625 9.46094 15.1523 9.46094 15.4688 9.77734C15.8203 10.1289 15.8203 10.6562 15.4688 10.9727L10.1602 16.3164C7.94531 18.5312 4.39453 18.5312 2.21484 16.3164C0 14.1367 0 10.5859 2.21484 8.37109L8.96484 1.62109C10.5117 0.0742188 13.0781 0.0742188 14.6602 1.62109C16.207 3.20312 16.207 5.76953 14.6602 7.31641L8.19141 13.7852C7.06641 14.9102 5.23828 14.8047 4.25391 13.5742C3.41016 12.5195 3.51562 11.0078 4.46484 10.0586L9.80859 4.71484C10.125 4.39844 10.6523 4.39844 10.9688 4.71484C11.3203 5.06641 11.3203 5.59375 10.9688 5.91016L5.66016 11.2539C5.30859 11.6055 5.27344 12.1328 5.58984 12.5195C5.94141 12.9414 6.57422 13.0117 6.99609 12.5898L13.4648 6.12109C14.3789 5.20703 14.3789 3.73047 13.4648 2.81641Z" fill="#464F5E"/>
</svg>
