<svg width="18" height="19" viewBox="0 0 18 19" fill="none" xmlns="http://www.w3.org/2000/svg">
<path d="M9 1.9375C4.95703 1.9375 1.6875 5.24219 1.6875 9.25C1.6875 13.293 4.95703 16.5625 9 16.5625C9.45703 16.5625 9.84375 16.9492 9.84375 17.4062C9.84375 17.8984 9.45703 18.25 9 18.25C4.00781 18.25 0 14.2422 0 9.25C0 4.29297 4.00781 0.25 9 0.25C13.957 0.25 18 4.29297 18 9.25V10.2344C18 12.0273 16.5234 13.4688 14.7656 13.4688C13.6406 13.4688 12.6914 12.9414 12.0938 12.0977C11.3203 12.9414 10.2305 13.4688 9 13.4688C6.64453 13.4688 4.78125 11.6055 4.78125 9.25C4.78125 6.92969 6.64453 5.03125 9 5.03125C9.98438 5.03125 10.9336 5.41797 11.6367 5.98047C11.8125 5.76953 12.0586 5.59375 12.375 5.59375C12.832 5.59375 13.2188 5.98047 13.2188 6.4375V9.25V10.2344C13.2188 11.1133 13.8867 11.7812 14.7656 11.7812C15.6094 11.7812 16.3125 11.1133 16.3125 10.2344V9.25C16.3125 5.24219 13.0078 1.9375 9 1.9375ZM11.5312 9.25C11.5312 8.37109 11.0391 7.52734 10.2656 7.07031C9.45703 6.61328 8.50781 6.61328 7.73438 7.07031C6.92578 7.52734 6.46875 8.37109 6.46875 9.25C6.46875 10.1641 6.92578 11.0078 7.73438 11.4648C8.50781 11.9219 9.45703 11.9219 10.2656 11.4648C11.0391 11.0078 11.5312 10.1641 11.5312 9.25Z" fill="#464F5E"/>
</svg>
