<svg width="20" height="20" viewBox="0 0 20 20" fill="none" xmlns="http://www.w3.org/2000/svg">
<path d="M10.8203 2.29688L13.1641 7.33594L18.2031 9.67969C18.5156 9.83594 18.75 10.1484 18.75 10.5C18.75 10.8906 18.5156 11.2031 18.2031 11.3594L13.1641 13.7031L10.8203 18.7422C10.6641 19.0547 10.3516 19.25 10 19.25C9.60938 19.25 9.29688 19.0547 9.14062 18.7422L6.79688 13.7031L1.75781 11.3594C1.44531 11.2031 1.25 10.8906 1.25 10.5C1.25 10.1484 1.44531 9.83594 1.75781 9.67969L6.79688 7.33594L9.14062 2.29688C9.29688 1.98438 9.60938 1.75 10 1.75C10.3516 1.75 10.6641 1.98438 10.8203 2.29688Z" fill="url(#paint0_linear_50_280)"/>
<defs>
<linearGradient id="paint0_linear_50_280" x1="-1.57143" y1="2.08333" x2="19.9181" y2="16.3856" gradientUnits="userSpaceOnUse">
<stop stop-color="#FFC6E8"/>
<stop offset="0.105" stop-color="#CBC6FF"/>
<stop offset="1" stop-color="#4D3EE0"/>
</linearGradient>
</defs>
</svg>
