<svg width="27" height="27" viewBox="0 0 27 27" fill="none" xmlns="http://www.w3.org/2000/svg">
<circle cx="13.1792" cy="13.1762" r="12" fill="white"/>
<path d="M2.6336 7.09079C5.99614 1.26671 13.4433 -0.728667 19.2674 2.63379C25.0915 5.99635 27.0869 13.4434 23.7244 19.2675C20.3618 25.0916 12.9147 27.0871 7.09061 23.7246C1.26663 20.362 -0.728824 12.9149 2.6336 7.09079Z" stroke="url(#paint0_linear_50_1748)" stroke-width="2"/>
<path d="M6.67554 17.1636C6.8589 16.8811 7.03143 16.6152 7.20498 16.3496C7.4127 16.0313 7.62143 15.7133 7.82915 15.3949C8.13836 14.9213 8.45535 14.4531 8.75238 13.972C8.92288 13.6956 9.08425 13.4084 9.2057 13.1083C9.33053 12.8005 9.26862 12.4774 9.10522 12.1973C8.82409 11.7159 8.51929 11.2483 8.21955 10.7781C7.93808 10.3363 7.65053 9.89817 7.36568 9.45872C7.1972 9.1989 7.02805 8.93942 6.85991 8.67961C6.83352 8.63867 6.80883 8.59672 6.77365 8.53955C6.82135 8.53414 6.85213 8.52805 6.88258 8.52805C7.56764 8.52703 8.25304 8.525 8.9381 8.52974C8.98817 8.53008 9.05786 8.56526 9.08459 8.60619C9.33899 8.99727 9.58629 9.39309 9.83528 9.78789C10.0839 10.182 10.3363 10.5741 10.5802 10.9713C10.835 11.3857 11.0369 11.8194 11.1083 12.3106C11.1496 12.5958 11.1848 12.8762 11.1469 13.1628C11.0897 13.5958 10.994 14.0173 10.7595 14.3939C10.4239 14.9331 10.0843 15.4697 9.74597 16.0072C9.52168 16.3635 9.2984 16.7207 9.06801 17.0736C9.03756 17.1203 8.96889 17.17 8.91747 17.1703C8.19925 17.1764 7.4807 17.1744 6.76214 17.174C6.74218 17.1737 6.72222 17.169 6.67554 17.1636Z" fill="#353B46"/>
<path d="M16.1065 8.52579C16.0023 8.69021 15.917 8.82858 15.828 8.96457C15.577 9.34888 15.3247 9.73252 15.0733 10.1162C14.7908 10.5475 14.5036 10.9758 14.2272 11.4108C14.0059 11.7593 13.7563 12.0898 13.6034 12.4802C13.4552 12.8588 13.4968 13.218 13.695 13.5536C13.9721 14.0229 14.2712 14.4792 14.5648 14.9387C14.9275 15.5057 15.2939 16.0703 15.6596 16.6352C15.7705 16.8068 15.8849 16.9766 16.0097 17.1657C15.9454 17.1694 15.9055 17.1738 15.8659 17.1738C15.1931 17.1742 14.5202 17.1721 13.8476 17.1762C13.7502 17.1769 13.7008 17.1373 13.6521 17.0588C13.3632 16.5919 13.0672 16.1295 12.7769 15.6633C12.511 15.236 12.2363 14.8128 11.9907 14.374C11.8229 14.0746 11.7004 13.7519 11.6896 13.398C11.6818 13.146 11.6476 12.894 11.6517 12.6426C11.6605 12.0756 11.834 11.5587 12.1426 11.081C12.6548 10.2873 13.1585 9.48793 13.6609 8.68784C13.7363 8.56774 13.8172 8.51937 13.9664 8.52173C14.6264 8.53222 15.2868 8.52579 15.9471 8.52546C15.9877 8.52579 16.0287 8.52579 16.1065 8.52579Z" fill="#353B46"/>
<path d="M19.2402 12.5287C18.8 12.3286 18.4472 11.9758 18.2471 11.5356L17.9264 10.83L17.6057 11.5356C17.4056 11.9758 17.0528 12.3286 16.6125 12.5287L15.907 12.8494L16.6125 13.1701C17.0528 13.3702 17.4056 13.723 17.6057 14.1633L17.9264 14.8688L18.2471 14.1633C18.4472 13.723 18.8 13.3702 19.2402 13.1701L19.9458 12.8494L19.2402 12.5287Z" fill="#353B46"/>
<defs>
<linearGradient id="paint0_linear_50_1748" x1="-22.3208" y1="20.676" x2="-0.051938" y2="48.0542" gradientUnits="userSpaceOnUse">
<stop stop-color="#FF661F"/>
<stop offset="0.095" stop-color="#F49666"/>
<stop offset="0.155" stop-color="#E6B18F"/>
<stop offset="0.225" stop-color="#DBC8B2"/>
<stop offset="0.33" stop-color="#D2DACC"/>
<stop offset="0.39" stop-color="#CCE6DF"/>
<stop offset="0.45" stop-color="#C8EEEA"/>
<stop offset="0.565" stop-color="#AFFAF7"/>
<stop offset="0.665" stop-color="#AFCBFA"/>
<stop offset="0.76" stop-color="#AF9DFC"/>
<stop offset="0.905" stop-color="#D0A7A6"/>
<stop offset="1" stop-color="#FFB52E"/>
</linearGradient>
</defs>
</svg>
